<svg width="181" height="174" viewBox="0 0 181 174" version="1.1" xmlns="http://www.w3.org/2000/svg" xmlns:xlink="http://www.w3.org/1999/xlink">
<title>Component</title>
<desc>Created using Figma</desc>
<g id="Canvas" transform="translate(139 102)">
<g id="Component">
<g id="Ellipse">
<use xlink:href="#path0_fill" transform="translate(-139 -102)" fill="#242325"/>
</g>
<g id="Vector">
<use xlink:href="#path1_fill" transform="translate(-117 -66)" fill="#E01A4F"/>
<use xlink:href="#path2_fill" transform="translate(-117 -66)" fill="#E01A4F"/>
<use xlink:href="#path3_fill" transform="translate(-117 -66)" fill="#E01A4F"/>
<use xlink:href="#path4_fill" transform="translate(-117 -66)" fill="#E01A4F"/>
<use xlink:href="#path5_fill" transform="translate(-117 -66)" fill="#E01A4F"/>
<use xlink:href="#path6_fill" transform="translate(-117 -66)" fill="#E01A4F"/>
</g>
</g>
</g>
<defs>
<path id="path0_fill" d="M 181 87C 181 135.049 140.482 174 90.5 174C 40.5182 174 0 135.049 0 87C 0 38.9512 40.5182 0 90.5 0C 140.482 0 181 38.9512 181 87Z"/>
<path id="path1_fill" d="M 25 0L 42 0L 42 92L 25 92L 25 0Z"/>
<path id="path2_fill" d="M 58 0L 77 0L 77 14L 58 14L 58 0Z"/>
<path id="path3_fill" d="M 95 0L 114 0L 114 14L 95 14L 95 0Z"/>
<path id="path4_fill" d="M 76 36L 88 90L 49 90L 59 36L 76 36Z"/>
<path id="path5_fill" d="M 95 36L 129 36L 129 90L 95 90L 95 36Z"/>
<path id="path6_fill" d="M 0 77L 19 77L 19 92L 0 92L 0 77Z"/>
</defs>
</svg>
