<?xml version="1.0" standalone="no"?><!DOCTYPE svg PUBLIC "-//W3C//DTD SVG 1.1//EN" "http://www.w3.org/Graphics/SVG/1.1/DTD/svg11.dtd"><svg class="icon" height="512" viewBox="0 0 1024 1024" version="1.1" xmlns="http://www.w3.org/2000/svg"><path d="M511.166061 2.522168C231.385589 2.522168 2.522168 232.356398 2.522168 513.258796 2.522168 794.214619 231.385589 1023.995424 511.166061 1023.995424 557.743478 1023.995424 595.893488 985.746195 595.893488 938.910812 595.893488 917.560666 587.472186 896.315848 574.70362 883.542697 562.034268 866.538291 553.509168 849.48046 553.509168 828.130315 553.509168 781.398729 591.712602 743.039601 638.291544 743.039601L740.082907 743.039601C896.827198 743.039601 1024 615.360021 1024 457.947157 1019.759584 206.816207 790.897689 2.522168 511.166061 2.522168L511.166061 2.522168 511.166061 2.522168 511.166061 2.522168ZM201.757625 513.258793C155.129838 513.258793 117.028673 475.004988 117.028673 428.119231 117.028673 381.283847 155.129838 342.978143 201.757625 342.978143 248.389996 342.978143 286.540002 381.283847 286.540002 428.119231 286.489632 475.004988 248.383887 513.258793 201.757625 513.258793L201.757625 513.258793 201.757625 513.258793 201.757625 513.258793ZM371.273534 287.715353C324.694592 287.715353 286.495737 249.36233 286.495737 202.525421 286.495737 155.743462 324.696117 117.38433 371.273534 117.38433 417.905904 117.38433 456.055914 155.688512 456.055914 202.525421 456.055914 249.35775 417.899799 287.715353 371.273534 287.715353L371.273534 287.715353 371.273534 287.715353 371.273534 287.715353ZM651.005165 287.715353C604.322424 287.715353 566.221259 249.36233 566.221259 202.525421 566.221259 155.743462 604.322424 117.38433 651.005165 117.38433 697.632952 117.38433 735.734117 155.688512 735.734117 202.525421 735.734117 249.35775 697.632952 287.715353 651.005165 287.715353L651.005165 287.715353 651.005165 287.715353 651.005165 287.715353ZM820.569918 513.258793C773.937551 513.258793 735.787541 475.004988 735.787541 428.119231 735.787541 381.283847 773.936026 342.978143 820.569918 342.978143 867.248082 342.978143 905.347718 381.283847 905.347718 428.119231 905.349244 475.004988 867.248082 513.258793 820.569918 513.258793L820.569918 513.258793 820.569918 513.258793 820.569918 513.258793Z" /></svg>