<?xml version="1.0" standalone="no"?><!DOCTYPE svg PUBLIC "-//W3C//DTD SVG 1.1//EN" "http://www.w3.org/Graphics/SVG/1.1/DTD/svg11.dtd"><svg class="icon" height="512" viewBox="0 0 1024 1024" version="1.1" xmlns="http://www.w3.org/2000/svg"><path d="M439.395914 802.079678l-181.462888 0 0 28.91454 508.111436 0 0-28.91454L588.508 802.079678l0-35.075867 347.906711 0L936.414711 222.095307 85.892741 222.095307l0 544.907481 353.503173 0L439.395914 802.079678zM148.104641 686.715207l0-402.415163 726.07975 0 0 402.415163L148.104641 686.715207zM409.919579 394.59608c-5.076622 0-9.648754 2.117221-12.927427 5.492084l-0.01842-0.01842-71.133084 71.126944c-3.850701 3.308349-6.334265 8.156774-6.334265 13.624299 0 5.076622 2.111081 9.648754 5.485945 12.920264l-0.013303 0.023536 72.180949 72.180949 0.01842-0.025583c3.247974 3.166109 7.662517 5.126764 12.55392 5.126764 9.967002 0 18.044982-8.079002 18.044982-18.044982 0-4.882194-1.960655-9.3039-5.117554-12.55392l0.019443-0.01842-59.514465-59.518558 59.326177-59.328223-0.01842-0.017396c3.373841-3.278673 5.492084-7.849782 5.492084-12.927427C427.965583 402.674059 419.885558 394.59608 409.919579 394.59608zM698.324104 471.197712l-71.136154-71.126944-0.01228 0.01842c-3.28379-3.374864-7.855922-5.492084-12.933567-5.492084-9.964956 0-18.044982 8.077979-18.044982 18.044982 0 5.077645 2.117221 9.648754 5.491061 12.927427l-0.01842 0.017396 59.3272 59.328223-59.518558 59.520605 0.01842 0.016373c-3.15076 3.25002-5.118578 7.664563-5.118578 12.555967 0 9.965979 8.079002 18.044982 18.046005 18.044982 4.882194 0 9.305947-1.960655 12.55699-5.126764l0.020466 0.023536 72.180949-72.179926-0.020466-0.023536c3.382027-3.27151 5.492084-7.843642 5.492084-12.920264C704.656323 479.348346 702.172759 474.506061 698.324104 471.197712zM560.110229 340.460112c-7.820106 0-14.47262 4.974291-16.980743 11.921517l-96.102778 252.283864c-0.775666 2.00875-1.203408 4.193509-1.203408 6.471388 0 9.967002 8.079002 18.046005 18.044982 18.046005 7.819083 0 14.47262-4.972245 16.980743-11.921517l96.101755-252.281817c0.781806-2.00875 1.204431-4.186346 1.204431-6.472412C578.154187 348.539114 570.078255 340.460112 560.110229 340.460112z" /></svg>