<?xml version="1.0" standalone="no"?><!DOCTYPE svg PUBLIC "-//W3C//DTD SVG 1.1//EN" "http://www.w3.org/Graphics/SVG/1.1/DTD/svg11.dtd"><svg class="icon" height="512" viewBox="0 0 1024 1024" version="1.1" xmlns="http://www.w3.org/2000/svg"><path d="M867.46624 1.32096H156.5184C70.8096 1.32096 1.31584 70.8096 1.31584 156.52352V867.4816c0 85.71904 69.48864 155.20256 155.20256 155.20256h710.94272c85.70368 0 155.2128-69.4784 155.2128-155.20256V156.52352C1022.67904 70.8096 953.16992 1.32096 867.46624 1.32096zM810.1376 394.31168a465.7152 465.7152 0 0 1 0.3584 17.3312c0 176.8448-134.57408 380.70272-380.68736 380.70272-75.60192 0-145.93024-22.1696-205.12768-60.08832a274.4832 274.4832 0 0 0 31.89248 1.87392 268.4416 268.4416 0 0 0 166.17472-57.28768c-58.55232-1.1008-107.96032-39.7824-124.98432-92.94336 8.1664 1.57184 16.56832 2.43712 25.1904 2.43712 12.17024 0 24.01792-1.67424 35.24608-4.72064C297.00608 569.32864 250.88 515.23072 250.88 450.4064v-1.6896a132.99712 132.99712 0 0 0 60.58496 16.74752c-35.87072-23.96672-59.4944-64.95232-59.4944-111.36 0-24.51968 6.60992-47.49312 18.10432-67.28704 66.01216 80.98816 164.57728 134.25664 275.79392 139.81696a133.94944 133.94944 0 0 1-3.456-30.48448c0-73.88672 59.89888-133.80096 133.8112-133.80096a133.65248 133.65248 0 0 1 97.67936 42.26048 267.39712 267.39712 0 0 0 84.95104-32.4864c-9.97376 31.2576-31.21664 57.46688-58.83904 74.02496a267.32544 267.32544 0 0 0 76.8512-21.0688 272.8192 272.8192 0 0 1-66.72896 69.23264z" /></svg>